<svg xmlns="http://www.w3.org/2000/svg" version="1.1"  width="1440" height="560" preserveAspectRatio="none" viewBox="0 0 1440 560"><g mask="url(&quot;#SvgjsMask1034&quot;)" fill="none"><rect width="1440" height="560" x="0" y="0" fill="rgba(0, 0, 0, 1)"></rect><path d="M-71.47 352.26L-71.47 352.26" stroke="rgba(25, 118, 210, 0.3)" stroke-width="1.5"></path><path d="M-71.47 352.26L38.08 353.82" stroke="rgba(25, 118, 210, 0.3)" stroke-width="1.5"></path><path d="M-71.47 352.26L-106.26 551.43" stroke="rgba(25, 118, 210, 0.3)" stroke-width="1.5"></path><path d="M-71.47 352.26L53.47 543.24" stroke="rgba(25, 118, 210, 0.3)" stroke-width="1.5"></path><path d="M-106.26 551.43L-106.26 551.43" stroke="rgba(25, 118, 210, 0.3)" stroke-width="1.5"></path><path d="M-106.26 551.43L-58.54 669.92" stroke="rgba(25, 118, 210, 0.3)" stroke-width="1.5"></path><path d="M-106.26 551.43L53.47 543.24" stroke="rgba(25, 118, 210, 0.3)" stroke-width="1.5"></path><path d="M-106.26 551.43L38.08 353.82" stroke="rgba(25, 118, 210, 0.3)" stroke-width="1.5"></path><path d="M-106.26 551.43L108.71 693.93" stroke="rgba(25, 118, 210, 0.3)" stroke-width="1.5"></path><path d="M-106.26 551.43L194.86 555.23" stroke="rgba(25, 118, 210, 0.3)" stroke-width="1.5"></path><path d="M-58.54 669.92L-58.54 669.92" stroke="rgba(25, 118, 210, 0.3)" stroke-width="1.5"></path><path d="M-58.54 669.92L108.71 693.93" stroke="rgba(25, 118, 210, 0.3)" stroke-width="1.5"></path><path d="M-58.54 669.92L53.47 543.24" stroke="rgba(25, 118, 210, 0.3)" stroke-width="1.5"></path><path d="M-58.54 669.92L194.86 555.23" stroke="rgba(25, 118, 210, 0.3)" stroke-width="1.5"></path><path d="M-58.54 669.92L-71.47 352.26" stroke="rgba(25, 118, 210, 0.3)" stroke-width="1.5"></path><path d="M-58.54 669.92L38.08 353.82" stroke="rgba(25, 118, 210, 0.3)" stroke-width="1.5"></path><path d="M38.08 353.82L38.08 353.82" stroke="rgba(25, 118, 210, 0.3)" stroke-width="1.5"></path><path d="M38.08 353.82L53.47 543.24" stroke="rgba(25, 118, 210, 0.3)" stroke-width="1.5"></path><path d="M53.47 543.24L53.47 543.24" stroke="rgba(25, 118, 210, 0.3)" stroke-width="1.5"></path><path d="M53.47 543.24L194.86 555.23" stroke="rgba(25, 118, 210, 0.3)" stroke-width="1.5"></path><path d="M53.47 543.24L108.71 693.93" stroke="rgba(25, 118, 210, 0.3)" stroke-width="1.5"></path><path d="M108.71 693.93L108.71 693.93" stroke="rgba(25, 118, 210, 0.3)" stroke-width="1.5"></path><path d="M108.71 693.93L194.86 555.23" stroke="rgba(25, 118, 210, 0.3)" stroke-width="1.5"></path><path d="M108.71 693.93L392.61 679.87" stroke="rgba(25, 118, 210, 0.3)" stroke-width="1.5"></path><path d="M108.71 693.93L369.38 557.96" stroke="rgba(25, 118, 210, 0.3)" stroke-width="1.5"></path><path d="M194.86 555.23L194.86 555.23" stroke="rgba(25, 118, 210, 0.3)" stroke-width="1.5"></path><path d="M194.86 555.23L369.38 557.96" stroke="rgba(25, 118, 210, 0.3)" stroke-width="1.5"></path><path d="M194.86 555.23L392.61 679.87" stroke="rgba(25, 118, 210, 0.3)" stroke-width="1.5"></path><path d="M393.8 388.45L393.8 388.45" stroke="rgba(25, 118, 210, 0.3)" stroke-width="1.5"></path><path d="M393.8 388.45L497.23 510.39" stroke="rgba(25, 118, 210, 0.3)" stroke-width="1.5"></path><path d="M393.8 388.45L369.38 557.96" stroke="rgba(25, 118, 210, 0.3)" stroke-width="1.5"></path><path d="M393.8 388.45L643.95 387.66" stroke="rgba(25, 118, 210, 0.3)" stroke-width="1.5"></path><path d="M393.8 388.45L194.86 555.23" stroke="rgba(25, 118, 210, 0.3)" stroke-width="1.5"></path><path d="M393.8 388.45L392.61 679.87" stroke="rgba(25, 118, 210, 0.3)" stroke-width="1.5"></path><path d="M393.8 388.45L658.21 511.78" stroke="rgba(25, 118, 210, 0.3)" stroke-width="1.5"></path><path d="M369.38 557.96L369.38 557.96" stroke="rgba(25, 118, 210, 0.3)" stroke-width="1.5"></path><path d="M369.38 557.96L392.61 679.87" stroke="rgba(25, 118, 210, 0.3)" stroke-width="1.5"></path><path d="M369.38 557.96L497.23 510.39" stroke="rgba(25, 118, 210, 0.3)" stroke-width="1.5"></path><path d="M369.38 557.96L488.13 664.95" stroke="rgba(25, 118, 210, 0.3)" stroke-width="1.5"></path><path d="M392.61 679.87L392.61 679.87" stroke="rgba(25, 118, 210, 0.3)" stroke-width="1.5"></path><path d="M392.61 679.87L488.13 664.95" stroke="rgba(25, 118, 210, 0.3)" stroke-width="1.5"></path><path d="M392.61 679.87L497.23 510.39" stroke="rgba(25, 118, 210, 0.3)" stroke-width="1.5"></path><path d="M392.61 679.87L643.83 641.97" stroke="rgba(25, 118, 210, 0.3)" stroke-width="1.5"></path><path d="M497.23 510.39L497.23 510.39" stroke="rgba(25, 118, 210, 0.3)" stroke-width="1.5"></path><path d="M497.23 510.39L488.13 664.95" stroke="rgba(25, 118, 210, 0.3)" stroke-width="1.5"></path><path d="M497.23 510.39L658.21 511.78" stroke="rgba(25, 118, 210, 0.3)" stroke-width="1.5"></path><path d="M497.23 510.39L643.95 387.66" stroke="rgba(25, 118, 210, 0.3)" stroke-width="1.5"></path><path d="M488.13 664.95L488.13 664.95" stroke="rgba(25, 118, 210, 0.3)" stroke-width="1.5"></path><path d="M488.13 664.95L643.83 641.97" stroke="rgba(25, 118, 210, 0.3)" stroke-width="1.5"></path><path d="M643.95 387.66L643.95 387.66" stroke="rgba(25, 118, 210, 0.3)" stroke-width="1.5"></path><path d="M643.95 387.66L658.21 511.78" stroke="rgba(25, 118, 210, 0.3)" stroke-width="1.5"></path><path d="M658.21 511.78L658.21 511.78" stroke="rgba(25, 118, 210, 0.3)" stroke-width="1.5"></path><path d="M658.21 511.78L643.83 641.97" stroke="rgba(25, 118, 210, 0.3)" stroke-width="1.5"></path><path d="M643.83 641.97L643.83 641.97" stroke="rgba(25, 118, 210, 0.3)" stroke-width="1.5"></path><path d="M643.83 641.97L497.23 510.39" stroke="rgba(25, 118, 210, 0.3)" stroke-width="1.5"></path><path d="M855.17 93.16L855.17 93.16" stroke="rgba(25, 118, 210, 0.3)" stroke-width="1.5"></path><path d="M855.17 93.16L859.82 213.26" stroke="rgba(25, 118, 210, 0.3)" stroke-width="1.5"></path><path d="M855.17 93.16L990.94 -51.38" stroke="rgba(25, 118, 210, 0.3)" stroke-width="1.5"></path><path d="M855.17 93.16L982.4 250.96" stroke="rgba(25, 118, 210, 0.3)" stroke-width="1.5"></path><path d="M859.82 213.26L859.82 213.26" stroke="rgba(25, 118, 210, 0.3)" stroke-width="1.5"></path><path d="M859.82 213.26L982.4 250.96" stroke="rgba(25, 118, 210, 0.3)" stroke-width="1.5"></path><path d="M844.12 384.46L844.12 384.46" stroke="rgba(25, 118, 210, 0.3)" stroke-width="1.5"></path><path d="M844.12 384.46L983.38 395.51" stroke="rgba(25, 118, 210, 0.3)" stroke-width="1.5"></path><path d="M844.12 384.46L938.29 502.77" stroke="rgba(25, 118, 210, 0.3)" stroke-width="1.5"></path><path d="M840.96 703.37L840.96 703.37" stroke="rgba(25, 118, 210, 0.3)" stroke-width="1.5"></path><path d="M840.96 703.37L964.45 672.07" stroke="rgba(25, 118, 210, 0.3)" stroke-width="1.5"></path><path d="M840.96 703.37L643.83 641.97" stroke="rgba(25, 118, 210, 0.3)" stroke-width="1.5"></path><path d="M990.94 -51.38L990.94 -51.38" stroke="rgba(25, 118, 210, 0.3)" stroke-width="1.5"></path><path d="M990.94 -51.38L1112.9 -110.1" stroke="rgba(25, 118, 210, 0.3)" stroke-width="1.5"></path><path d="M990.94 -51.38L1105.67 87.16" stroke="rgba(25, 118, 210, 0.3)" stroke-width="1.5"></path><path d="M990.94 -51.38L1268.7 -81.75" stroke="rgba(25, 118, 210, 0.3)" stroke-width="1.5"></path><path d="M990.94 -51.38L1122.96 212.65" stroke="rgba(25, 118, 210, 0.3)" stroke-width="1.5"></path><path d="M982.4 250.96L982.4 250.96" stroke="rgba(25, 118, 210, 0.3)" stroke-width="1.5"></path><path d="M982.4 250.96L983.38 395.51" stroke="rgba(25, 118, 210, 0.3)" stroke-width="1.5"></path><path d="M982.4 250.96L1122.96 212.65" stroke="rgba(25, 118, 210, 0.3)" stroke-width="1.5"></path><path d="M982.4 250.96L844.12 384.46" stroke="rgba(25, 118, 210, 0.3)" stroke-width="1.5"></path><path d="M983.38 395.51L983.38 395.51" stroke="rgba(25, 118, 210, 0.3)" stroke-width="1.5"></path><path d="M983.38 395.51L938.29 502.77" stroke="rgba(25, 118, 210, 0.3)" stroke-width="1.5"></path><path d="M983.38 395.51L1125.99 399.18" stroke="rgba(25, 118, 210, 0.3)" stroke-width="1.5"></path><path d="M938.29 502.77L938.29 502.77" stroke="rgba(25, 118, 210, 0.3)" stroke-width="1.5"></path><path d="M964.45 672.07L964.45 672.07" stroke="rgba(25, 118, 210, 0.3)" stroke-width="1.5"></path><path d="M964.45 672.07L938.29 502.77" stroke="rgba(25, 118, 210, 0.3)" stroke-width="1.5"></path><path d="M964.45 672.07L1157.39 661.49" stroke="rgba(25, 118, 210, 0.3)" stroke-width="1.5"></path><path d="M964.45 672.07L1105.02 492.92" stroke="rgba(25, 118, 210, 0.3)" stroke-width="1.5"></path><path d="M1112.9 -110.1L1112.9 -110.1" stroke="rgba(25, 118, 210, 0.3)" stroke-width="1.5"></path><path d="M1112.9 -110.1L1268.7 -81.75" stroke="rgba(25, 118, 210, 0.3)" stroke-width="1.5"></path><path d="M1112.9 -110.1L1105.67 87.16" stroke="rgba(25, 118, 210, 0.3)" stroke-width="1.5"></path><path d="M1112.9 -110.1L1296.9 73.98" stroke="rgba(25, 118, 210, 0.3)" stroke-width="1.5"></path><path d="M1105.67 87.16L1105.67 87.16" stroke="rgba(25, 118, 210, 0.3)" stroke-width="1.5"></path><path d="M1105.67 87.16L1122.96 212.65" stroke="rgba(25, 118, 210, 0.3)" stroke-width="1.5"></path><path d="M1105.67 87.16L1296.9 73.98" stroke="rgba(25, 118, 210, 0.3)" stroke-width="1.5"></path><path d="M1122.96 212.65L1122.96 212.65" stroke="rgba(25, 118, 210, 0.3)" stroke-width="1.5"></path><path d="M1125.99 399.18L1125.99 399.18" stroke="rgba(25, 118, 210, 0.3)" stroke-width="1.5"></path><path d="M1125.99 399.18L1105.02 492.92" stroke="rgba(25, 118, 210, 0.3)" stroke-width="1.5"></path><path d="M1125.99 399.18L1264.56 381.7" stroke="rgba(25, 118, 210, 0.3)" stroke-width="1.5"></path><path d="M1105.02 492.92L1105.02 492.92" stroke="rgba(25, 118, 210, 0.3)" stroke-width="1.5"></path><path d="M1105.02 492.92L983.38 395.51" stroke="rgba(25, 118, 210, 0.3)" stroke-width="1.5"></path><path d="M1105.02 492.92L938.29 502.77" stroke="rgba(25, 118, 210, 0.3)" stroke-width="1.5"></path><path d="M1105.02 492.92L1157.39 661.49" stroke="rgba(25, 118, 210, 0.3)" stroke-width="1.5"></path><path d="M1157.39 661.49L1157.39 661.49" stroke="rgba(25, 118, 210, 0.3)" stroke-width="1.5"></path><path d="M1157.39 661.49L1246.35 638.45" stroke="rgba(25, 118, 210, 0.3)" stroke-width="1.5"></path><path d="M1157.39 661.49L1125.99 399.18" stroke="rgba(25, 118, 210, 0.3)" stroke-width="1.5"></path><path d="M1157.39 661.49L938.29 502.77" stroke="rgba(25, 118, 210, 0.3)" stroke-width="1.5"></path><path d="M1157.39 661.49L1406.8 496.85" stroke="rgba(25, 118, 210, 0.3)" stroke-width="1.5"></path><path d="M1268.7 -81.75L1268.7 -81.75" stroke="rgba(25, 118, 210, 0.3)" stroke-width="1.5"></path><path d="M1268.7 -81.75L1399.53 -68.56" stroke="rgba(25, 118, 210, 0.3)" stroke-width="1.5"></path><path d="M1268.7 -81.75L1296.9 73.98" stroke="rgba(25, 118, 210, 0.3)" stroke-width="1.5"></path><path d="M1296.9 73.98L1296.9 73.98" stroke="rgba(25, 118, 210, 0.3)" stroke-width="1.5"></path><path d="M1296.9 73.98L1272.24 202.88" stroke="rgba(25, 118, 210, 0.3)" stroke-width="1.5"></path><path d="M1296.9 73.98L1433.59 84.41" stroke="rgba(25, 118, 210, 0.3)" stroke-width="1.5"></path><path d="M1296.9 73.98L1399.53 -68.56" stroke="rgba(25, 118, 210, 0.3)" stroke-width="1.5"></path><path d="M1296.9 73.98L1436 205.19" stroke="rgba(25, 118, 210, 0.3)" stroke-width="1.5"></path><path d="M1272.24 202.88L1272.24 202.88" stroke="rgba(25, 118, 210, 0.3)" stroke-width="1.5"></path><path d="M1272.24 202.88L1122.96 212.65" stroke="rgba(25, 118, 210, 0.3)" stroke-width="1.5"></path><path d="M1272.24 202.88L1436 205.19" stroke="rgba(25, 118, 210, 0.3)" stroke-width="1.5"></path><path d="M1272.24 202.88L1264.56 381.7" stroke="rgba(25, 118, 210, 0.3)" stroke-width="1.5"></path><path d="M1272.24 202.88L1433.59 84.41" stroke="rgba(25, 118, 210, 0.3)" stroke-width="1.5"></path><path d="M1264.56 381.7L1264.56 381.7" stroke="rgba(25, 118, 210, 0.3)" stroke-width="1.5"></path><path d="M1264.56 381.7L1419.33 341.96" stroke="rgba(25, 118, 210, 0.3)" stroke-width="1.5"></path><path d="M1246.35 638.45L1246.35 638.45" stroke="rgba(25, 118, 210, 0.3)" stroke-width="1.5"></path><path d="M1246.35 638.45L1105.02 492.92" stroke="rgba(25, 118, 210, 0.3)" stroke-width="1.5"></path><path d="M1246.35 638.45L1457.15 649.67" stroke="rgba(25, 118, 210, 0.3)" stroke-width="1.5"></path><path d="M1246.35 638.45L1406.8 496.85" stroke="rgba(25, 118, 210, 0.3)" stroke-width="1.5"></path><path d="M1246.35 638.45L1264.56 381.7" stroke="rgba(25, 118, 210, 0.3)" stroke-width="1.5"></path><path d="M1399.53 -68.56L1399.53 -68.56" stroke="rgba(25, 118, 210, 0.3)" stroke-width="1.5"></path><path d="M1399.53 -68.56L1541.53 -93.69" stroke="rgba(25, 118, 210, 0.3)" stroke-width="1.5"></path><path d="M1399.53 -68.56L1433.59 84.41" stroke="rgba(25, 118, 210, 0.3)" stroke-width="1.5"></path><path d="M1399.53 -68.56L1604.12 109.71" stroke="rgba(25, 118, 210, 0.3)" stroke-width="1.5"></path><path d="M1433.59 84.41L1433.59 84.41" stroke="rgba(25, 118, 210, 0.3)" stroke-width="1.5"></path><path d="M1433.59 84.41L1436 205.19" stroke="rgba(25, 118, 210, 0.3)" stroke-width="1.5"></path><path d="M1433.59 84.41L1604.12 109.71" stroke="rgba(25, 118, 210, 0.3)" stroke-width="1.5"></path><path d="M1433.59 84.41L1541.53 -93.69" stroke="rgba(25, 118, 210, 0.3)" stroke-width="1.5"></path><path d="M1436 205.19L1436 205.19" stroke="rgba(25, 118, 210, 0.3)" stroke-width="1.5"></path><path d="M1436 205.19L1419.33 341.96" stroke="rgba(25, 118, 210, 0.3)" stroke-width="1.5"></path><path d="M1436 205.19L1594.22 241.56" stroke="rgba(25, 118, 210, 0.3)" stroke-width="1.5"></path><path d="M1419.33 341.96L1419.33 341.96" stroke="rgba(25, 118, 210, 0.3)" stroke-width="1.5"></path><path d="M1419.33 341.96L1406.8 496.85" stroke="rgba(25, 118, 210, 0.3)" stroke-width="1.5"></path><path d="M1419.33 341.96L1577.97 360.55" stroke="rgba(25, 118, 210, 0.3)" stroke-width="1.5"></path><path d="M1406.8 496.85L1406.8 496.85" stroke="rgba(25, 118, 210, 0.3)" stroke-width="1.5"></path><path d="M1406.8 496.85L1457.15 649.67" stroke="rgba(25, 118, 210, 0.3)" stroke-width="1.5"></path><path d="M1457.15 649.67L1457.15 649.67" stroke="rgba(25, 118, 210, 0.3)" stroke-width="1.5"></path><path d="M1457.15 649.67L1591.6 685.56" stroke="rgba(25, 118, 210, 0.3)" stroke-width="1.5"></path><path d="M1457.15 649.67L1607.42 519.56" stroke="rgba(25, 118, 210, 0.3)" stroke-width="1.5"></path><path d="M1541.53 -93.69L1541.53 -93.69" stroke="rgba(25, 118, 210, 0.3)" stroke-width="1.5"></path><path d="M1604.12 109.71L1604.12 109.71" stroke="rgba(25, 118, 210, 0.3)" stroke-width="1.5"></path><path d="M1604.12 109.71L1594.22 241.56" stroke="rgba(25, 118, 210, 0.3)" stroke-width="1.5"></path><path d="M1604.12 109.71L1436 205.19" stroke="rgba(25, 118, 210, 0.3)" stroke-width="1.5"></path><path d="M1604.12 109.71L1541.53 -93.69" stroke="rgba(25, 118, 210, 0.3)" stroke-width="1.5"></path><path d="M1604.12 109.71L1577.97 360.55" stroke="rgba(25, 118, 210, 0.3)" stroke-width="1.5"></path><path d="M1594.22 241.56L1594.22 241.56" stroke="rgba(25, 118, 210, 0.3)" stroke-width="1.5"></path><path d="M1594.22 241.56L1577.97 360.55" stroke="rgba(25, 118, 210, 0.3)" stroke-width="1.5"></path><path d="M1594.22 241.56L1419.33 341.96" stroke="rgba(25, 118, 210, 0.3)" stroke-width="1.5"></path><path d="M1577.97 360.55L1577.97 360.55" stroke="rgba(25, 118, 210, 0.3)" stroke-width="1.5"></path><path d="M1577.97 360.55L1607.42 519.56" stroke="rgba(25, 118, 210, 0.3)" stroke-width="1.5"></path><path d="M1607.42 519.56L1607.42 519.56" stroke="rgba(25, 118, 210, 0.3)" stroke-width="1.5"></path><path d="M1591.6 685.56L1591.6 685.56" stroke="rgba(25, 118, 210, 0.3)" stroke-width="1.5"></path><path d="M1591.6 685.56L1607.42 519.56" stroke="rgba(25, 118, 210, 0.3)" stroke-width="1.5"></path><path d="M1591.6 685.56L1406.8 496.85" stroke="rgba(25, 118, 210, 0.3)" stroke-width="1.5"></path><path d="M1591.6 685.56L1577.97 360.55" stroke="rgba(25, 118, 210, 0.3)" stroke-width="1.5"></path><path d="M1591.6 685.56L1246.35 638.45" stroke="rgba(25, 118, 210, 0.3)" stroke-width="1.5"></path><circle r="5" cx="-71.47" cy="352.26" fill="rgba(25, 118, 210, 0.3)"></circle><circle r="5" cx="-106.26" cy="551.43" fill="rgba(25, 118, 210, 0.3)"></circle><circle r="5" cx="-58.54" cy="669.92" fill="rgba(25, 118, 210, 0.3)"></circle><circle r="5" cx="38.08" cy="353.82" fill="rgba(25, 118, 210, 0.3)"></circle><circle r="5" cx="53.47" cy="543.24" fill="rgba(25, 118, 210, 0.3)"></circle><circle r="5" cx="108.71" cy="693.93" fill="rgba(25, 118, 210, 0.3)"></circle><circle r="5" cx="194.86" cy="555.23" fill="rgba(25, 118, 210, 0.3)"></circle><circle r="5" cx="393.8" cy="388.45" fill="rgba(25, 118, 210, 0.3)"></circle><circle r="5" cx="369.38" cy="557.96" fill="rgba(25, 118, 210, 0.3)"></circle><circle r="5" cx="392.61" cy="679.87" fill="rgba(25, 118, 210, 0.3)"></circle><circle r="5" cx="497.23" cy="510.39" fill="rgba(25, 118, 210, 0.3)"></circle><circle r="5" cx="488.13" cy="664.95" fill="rgba(25, 118, 210, 0.3)"></circle><circle r="5" cx="643.95" cy="387.66" fill="rgba(25, 118, 210, 0.3)"></circle><circle r="5" cx="658.21" cy="511.78" fill="rgba(25, 118, 210, 0.3)"></circle><circle r="5" cx="643.83" cy="641.97" fill="rgba(25, 118, 210, 0.3)"></circle><circle r="5" cx="855.17" cy="93.16" fill="rgba(25, 118, 210, 0.3)"></circle><circle r="5" cx="859.82" cy="213.26" fill="rgba(25, 118, 210, 0.3)"></circle><circle r="5" cx="844.12" cy="384.46" fill="rgba(25, 118, 210, 0.3)"></circle><circle r="5" cx="840.96" cy="703.37" fill="rgba(25, 118, 210, 0.3)"></circle><circle r="5" cx="990.94" cy="-51.38" fill="rgba(25, 118, 210, 0.3)"></circle><circle r="5" cx="982.4" cy="250.96" fill="rgba(25, 118, 210, 0.3)"></circle><circle r="5" cx="983.38" cy="395.51" fill="rgba(25, 118, 210, 0.3)"></circle><circle r="5" cx="938.29" cy="502.77" fill="rgba(25, 118, 210, 0.3)"></circle><circle r="5" cx="964.45" cy="672.07" fill="rgba(25, 118, 210, 0.3)"></circle><circle r="5" cx="1112.9" cy="-110.1" fill="rgba(25, 118, 210, 0.3)"></circle><circle r="5" cx="1105.67" cy="87.16" fill="rgba(25, 118, 210, 0.3)"></circle><circle r="5" cx="1122.96" cy="212.65" fill="rgba(25, 118, 210, 0.3)"></circle><circle r="5" cx="1125.99" cy="399.18" fill="rgba(25, 118, 210, 0.3)"></circle><circle r="5" cx="1105.02" cy="492.92" fill="rgba(25, 118, 210, 0.3)"></circle><circle r="5" cx="1157.39" cy="661.49" fill="rgba(25, 118, 210, 0.3)"></circle><circle r="5" cx="1268.7" cy="-81.75" fill="rgba(25, 118, 210, 0.3)"></circle><circle r="5" cx="1296.9" cy="73.98" fill="rgba(25, 118, 210, 0.3)"></circle><circle r="5" cx="1272.24" cy="202.88" fill="rgba(25, 118, 210, 0.3)"></circle><circle r="5" cx="1264.56" cy="381.7" fill="rgba(25, 118, 210, 0.3)"></circle><circle r="5" cx="1246.35" cy="638.45" fill="rgba(25, 118, 210, 0.3)"></circle><circle r="5" cx="1399.53" cy="-68.56" fill="rgba(25, 118, 210, 0.3)"></circle><circle r="5" cx="1433.59" cy="84.41" fill="rgba(25, 118, 210, 0.3)"></circle><circle r="5" cx="1436" cy="205.19" fill="rgba(25, 118, 210, 0.3)"></circle><circle r="5" cx="1419.33" cy="341.96" fill="rgba(25, 118, 210, 0.3)"></circle><circle r="5" cx="1406.8" cy="496.85" fill="rgba(25, 118, 210, 0.3)"></circle><circle r="5" cx="1457.15" cy="649.67" fill="rgba(25, 118, 210, 0.3)"></circle><circle r="5" cx="1541.53" cy="-93.69" fill="rgba(25, 118, 210, 0.3)"></circle><circle r="5" cx="1604.12" cy="109.71" fill="rgba(25, 118, 210, 0.3)"></circle><circle r="5" cx="1594.22" cy="241.56" fill="rgba(25, 118, 210, 0.3)"></circle><circle r="5" cx="1577.97" cy="360.55" fill="rgba(25, 118, 210, 0.3)"></circle><circle r="5" cx="1607.42" cy="519.56" fill="rgba(25, 118, 210, 0.3)"></circle><circle r="5" cx="1591.6" cy="685.56" fill="rgba(25, 118, 210, 0.3)"></circle><path d="M220.51 504.33L220.51 504.33" stroke="hsla(209.79999999999995, 78.7%, 59.9%, 0.8)" stroke-width="1.5"></path><path d="M220.51 504.33L100.5 536.54" stroke="hsla(209.79999999999995, 78.7%, 59.9%, 0.8)" stroke-width="1.5"></path><path d="M220.51 504.33L398.72 491.73" stroke="hsla(209.79999999999995, 78.7%, 59.9%, 0.8)" stroke-width="1.5"></path><path d="M220.51 504.33L364.69 644.31" stroke="hsla(209.79999999999995, 78.7%, 59.9%, 0.8)" stroke-width="1.5"></path><path d="M220.51 504.33L192.85 710.14" stroke="hsla(209.79999999999995, 78.7%, 59.9%, 0.8)" stroke-width="1.5"></path><path d="M220.51 504.33L50.65 704.08" stroke="hsla(209.79999999999995, 78.7%, 59.9%, 0.8)" stroke-width="1.5"></path><path d="M220.51 504.33L-51.82 539.31" stroke="hsla(209.79999999999995, 78.7%, 59.9%, 0.8)" stroke-width="1.5"></path><path d="M192.85 710.14L192.85 710.14" stroke="hsla(209.79999999999995, 78.7%, 59.9%, 0.8)" stroke-width="1.5"></path><path d="M192.85 710.14L50.65 704.08" stroke="hsla(209.79999999999995, 78.7%, 59.9%, 0.8)" stroke-width="1.5"></path><path d="M192.85 710.14L364.69 644.31" stroke="hsla(209.79999999999995, 78.7%, 59.9%, 0.8)" stroke-width="1.5"></path><path d="M192.85 710.14L100.5 536.54" stroke="hsla(209.79999999999995, 78.7%, 59.9%, 0.8)" stroke-width="1.5"></path><path d="M1130.77 375.06L1130.77 375.06" stroke="hsla(209.79999999999995, 78.7%, 59.9%, 0.8)" stroke-width="1.5"></path><path d="M1130.77 375.06L1091.54 503.8" stroke="hsla(209.79999999999995, 78.7%, 59.9%, 0.8)" stroke-width="1.5"></path><path d="M1130.77 375.06L1125.84 213.17" stroke="hsla(209.79999999999995, 78.7%, 59.9%, 0.8)" stroke-width="1.5"></path><path d="M1130.77 375.06L948.58 406.82" stroke="hsla(209.79999999999995, 78.7%, 59.9%, 0.8)" stroke-width="1.5"></path><path d="M1130.77 375.06L974.14 493.36" stroke="hsla(209.79999999999995, 78.7%, 59.9%, 0.8)" stroke-width="1.5"></path><path d="M1287.18 -77.48L1287.18 -77.48" stroke="hsla(209.79999999999995, 78.7%, 59.9%, 0.8)" stroke-width="1.5"></path><path d="M1287.18 -77.48L1391.04 47.85" stroke="hsla(209.79999999999995, 78.7%, 59.9%, 0.8)" stroke-width="1.5"></path><path d="M1287.18 -77.48L1461.32 -57.18" stroke="hsla(209.79999999999995, 78.7%, 59.9%, 0.8)" stroke-width="1.5"></path><path d="M1287.18 -77.48L1246.61 191.24" stroke="hsla(209.79999999999995, 78.7%, 59.9%, 0.8)" stroke-width="1.5"></path><path d="M1287.18 -77.48L1597.47 -84.6" stroke="hsla(209.79999999999995, 78.7%, 59.9%, 0.8)" stroke-width="1.5"></path><path d="M-51.82 539.31L-51.82 539.31" stroke="hsla(209.79999999999995, 78.7%, 59.9%, 0.8)" stroke-width="1.5"></path><path d="M-51.82 539.31L100.5 536.54" stroke="hsla(209.79999999999995, 78.7%, 59.9%, 0.8)" stroke-width="1.5"></path><path d="M-51.82 539.31L50.65 704.08" stroke="hsla(209.79999999999995, 78.7%, 59.9%, 0.8)" stroke-width="1.5"></path><path d="M-51.82 539.31L192.85 710.14" stroke="hsla(209.79999999999995, 78.7%, 59.9%, 0.8)" stroke-width="1.5"></path><path d="M100.5 536.54L100.5 536.54" stroke="hsla(209.79999999999995, 78.7%, 59.9%, 0.8)" stroke-width="1.5"></path><path d="M100.5 536.54L50.65 704.08" stroke="hsla(209.79999999999995, 78.7%, 59.9%, 0.8)" stroke-width="1.5"></path><path d="M50.65 704.08L50.65 704.08" stroke="hsla(209.79999999999995, 78.7%, 59.9%, 0.8)" stroke-width="1.5"></path><path d="M398.72 491.73L398.72 491.73" stroke="hsla(209.79999999999995, 78.7%, 59.9%, 0.8)" stroke-width="1.5"></path><path d="M398.72 491.73L364.69 644.31" stroke="hsla(209.79999999999995, 78.7%, 59.9%, 0.8)" stroke-width="1.5"></path><path d="M398.72 491.73L542.28 556.05" stroke="hsla(209.79999999999995, 78.7%, 59.9%, 0.8)" stroke-width="1.5"></path><path d="M364.69 644.31L364.69 644.31" stroke="hsla(209.79999999999995, 78.7%, 59.9%, 0.8)" stroke-width="1.5"></path><path d="M364.69 644.31L537.91 699.96" stroke="hsla(209.79999999999995, 78.7%, 59.9%, 0.8)" stroke-width="1.5"></path><path d="M364.69 644.31L542.28 556.05" stroke="hsla(209.79999999999995, 78.7%, 59.9%, 0.8)" stroke-width="1.5"></path><path d="M542.28 556.05L542.28 556.05" stroke="hsla(209.79999999999995, 78.7%, 59.9%, 0.8)" stroke-width="1.5"></path><path d="M542.28 556.05L537.91 699.96" stroke="hsla(209.79999999999995, 78.7%, 59.9%, 0.8)" stroke-width="1.5"></path><path d="M542.28 556.05L696.59 536.65" stroke="hsla(209.79999999999995, 78.7%, 59.9%, 0.8)" stroke-width="1.5"></path><path d="M542.28 556.05L652.1 395.78" stroke="hsla(209.79999999999995, 78.7%, 59.9%, 0.8)" stroke-width="1.5"></path><path d="M542.28 556.05L834.21 502.51" stroke="hsla(209.79999999999995, 78.7%, 59.9%, 0.8)" stroke-width="1.5"></path><path d="M537.91 699.96L537.91 699.96" stroke="hsla(209.79999999999995, 78.7%, 59.9%, 0.8)" stroke-width="1.5"></path><path d="M537.91 699.96L696.59 536.65" stroke="hsla(209.79999999999995, 78.7%, 59.9%, 0.8)" stroke-width="1.5"></path><path d="M652.1 395.78L652.1 395.78" stroke="hsla(209.79999999999995, 78.7%, 59.9%, 0.8)" stroke-width="1.5"></path><path d="M652.1 395.78L696.59 536.65" stroke="hsla(209.79999999999995, 78.7%, 59.9%, 0.8)" stroke-width="1.5"></path><path d="M652.1 395.78L834.09 397.6" stroke="hsla(209.79999999999995, 78.7%, 59.9%, 0.8)" stroke-width="1.5"></path><path d="M652.1 395.78L834.21 502.51" stroke="hsla(209.79999999999995, 78.7%, 59.9%, 0.8)" stroke-width="1.5"></path><path d="M652.1 395.78L398.72 491.73" stroke="hsla(209.79999999999995, 78.7%, 59.9%, 0.8)" stroke-width="1.5"></path><path d="M696.59 536.65L696.59 536.65" stroke="hsla(209.79999999999995, 78.7%, 59.9%, 0.8)" stroke-width="1.5"></path><path d="M696.59 536.65L834.21 502.51" stroke="hsla(209.79999999999995, 78.7%, 59.9%, 0.8)" stroke-width="1.5"></path><path d="M834.09 397.6L834.09 397.6" stroke="hsla(209.79999999999995, 78.7%, 59.9%, 0.8)" stroke-width="1.5"></path><path d="M834.09 397.6L834.21 502.51" stroke="hsla(209.79999999999995, 78.7%, 59.9%, 0.8)" stroke-width="1.5"></path><path d="M834.09 397.6L948.58 406.82" stroke="hsla(209.79999999999995, 78.7%, 59.9%, 0.8)" stroke-width="1.5"></path><path d="M834.09 397.6L974.14 493.36" stroke="hsla(209.79999999999995, 78.7%, 59.9%, 0.8)" stroke-width="1.5"></path><path d="M834.21 502.51L834.21 502.51" stroke="hsla(209.79999999999995, 78.7%, 59.9%, 0.8)" stroke-width="1.5"></path><path d="M834.21 502.51L974.14 493.36" stroke="hsla(209.79999999999995, 78.7%, 59.9%, 0.8)" stroke-width="1.5"></path><path d="M834.51 670.09L834.51 670.09" stroke="hsla(209.79999999999995, 78.7%, 59.9%, 0.8)" stroke-width="1.5"></path><path d="M834.51 670.09L834.21 502.51" stroke="hsla(209.79999999999995, 78.7%, 59.9%, 0.8)" stroke-width="1.5"></path><path d="M834.51 670.09L1006.92 696.82" stroke="hsla(209.79999999999995, 78.7%, 59.9%, 0.8)" stroke-width="1.5"></path><path d="M834.51 670.09L696.59 536.65" stroke="hsla(209.79999999999995, 78.7%, 59.9%, 0.8)" stroke-width="1.5"></path><path d="M834.51 670.09L974.14 493.36" stroke="hsla(209.79999999999995, 78.7%, 59.9%, 0.8)" stroke-width="1.5"></path><path d="M948.58 406.82L948.58 406.82" stroke="hsla(209.79999999999995, 78.7%, 59.9%, 0.8)" stroke-width="1.5"></path><path d="M948.58 406.82L974.14 493.36" stroke="hsla(209.79999999999995, 78.7%, 59.9%, 0.8)" stroke-width="1.5"></path><path d="M948.58 406.82L834.21 502.51" stroke="hsla(209.79999999999995, 78.7%, 59.9%, 0.8)" stroke-width="1.5"></path><path d="M974.14 493.36L974.14 493.36" stroke="hsla(209.79999999999995, 78.7%, 59.9%, 0.8)" stroke-width="1.5"></path><path d="M974.14 493.36L1091.54 503.8" stroke="hsla(209.79999999999995, 78.7%, 59.9%, 0.8)" stroke-width="1.5"></path><path d="M1006.92 696.82L1006.92 696.82" stroke="hsla(209.79999999999995, 78.7%, 59.9%, 0.8)" stroke-width="1.5"></path><path d="M1006.92 696.82L1088.73 683.6" stroke="hsla(209.79999999999995, 78.7%, 59.9%, 0.8)" stroke-width="1.5"></path><path d="M1125.84 213.17L1125.84 213.17" stroke="hsla(209.79999999999995, 78.7%, 59.9%, 0.8)" stroke-width="1.5"></path><path d="M1125.84 213.17L1246.61 191.24" stroke="hsla(209.79999999999995, 78.7%, 59.9%, 0.8)" stroke-width="1.5"></path><path d="M1125.84 213.17L948.58 406.82" stroke="hsla(209.79999999999995, 78.7%, 59.9%, 0.8)" stroke-width="1.5"></path><path d="M1125.84 213.17L1091.54 503.8" stroke="hsla(209.79999999999995, 78.7%, 59.9%, 0.8)" stroke-width="1.5"></path><path d="M1125.84 213.17L1391.04 47.85" stroke="hsla(209.79999999999995, 78.7%, 59.9%, 0.8)" stroke-width="1.5"></path><path d="M1091.54 503.8L1091.54 503.8" stroke="hsla(209.79999999999995, 78.7%, 59.9%, 0.8)" stroke-width="1.5"></path><path d="M1091.54 503.8L948.58 406.82" stroke="hsla(209.79999999999995, 78.7%, 59.9%, 0.8)" stroke-width="1.5"></path><path d="M1091.54 503.8L1088.73 683.6" stroke="hsla(209.79999999999995, 78.7%, 59.9%, 0.8)" stroke-width="1.5"></path><path d="M1091.54 503.8L1284.16 553.34" stroke="hsla(209.79999999999995, 78.7%, 59.9%, 0.8)" stroke-width="1.5"></path><path d="M1091.54 503.8L1006.92 696.82" stroke="hsla(209.79999999999995, 78.7%, 59.9%, 0.8)" stroke-width="1.5"></path><path d="M1088.73 683.6L1088.73 683.6" stroke="hsla(209.79999999999995, 78.7%, 59.9%, 0.8)" stroke-width="1.5"></path><path d="M1088.73 683.6L1261.56 651.68" stroke="hsla(209.79999999999995, 78.7%, 59.9%, 0.8)" stroke-width="1.5"></path><path d="M1246.61 191.24L1246.61 191.24" stroke="hsla(209.79999999999995, 78.7%, 59.9%, 0.8)" stroke-width="1.5"></path><path d="M1246.61 191.24L1391.04 47.85" stroke="hsla(209.79999999999995, 78.7%, 59.9%, 0.8)" stroke-width="1.5"></path><path d="M1246.61 191.24L1130.77 375.06" stroke="hsla(209.79999999999995, 78.7%, 59.9%, 0.8)" stroke-width="1.5"></path><path d="M1284.16 553.34L1284.16 553.34" stroke="hsla(209.79999999999995, 78.7%, 59.9%, 0.8)" stroke-width="1.5"></path><path d="M1284.16 553.34L1261.56 651.68" stroke="hsla(209.79999999999995, 78.7%, 59.9%, 0.8)" stroke-width="1.5"></path><path d="M1261.56 651.68L1261.56 651.68" stroke="hsla(209.79999999999995, 78.7%, 59.9%, 0.8)" stroke-width="1.5"></path><path d="M1261.56 651.68L1389.42 698.4" stroke="hsla(209.79999999999995, 78.7%, 59.9%, 0.8)" stroke-width="1.5"></path><path d="M1461.32 -57.18L1461.32 -57.18" stroke="hsla(209.79999999999995, 78.7%, 59.9%, 0.8)" stroke-width="1.5"></path><path d="M1461.32 -57.18L1391.04 47.85" stroke="hsla(209.79999999999995, 78.7%, 59.9%, 0.8)" stroke-width="1.5"></path><path d="M1461.32 -57.18L1597.47 -84.6" stroke="hsla(209.79999999999995, 78.7%, 59.9%, 0.8)" stroke-width="1.5"></path><path d="M1461.32 -57.18L1591.7 80.51" stroke="hsla(209.79999999999995, 78.7%, 59.9%, 0.8)" stroke-width="1.5"></path><path d="M1391.04 47.85L1391.04 47.85" stroke="hsla(209.79999999999995, 78.7%, 59.9%, 0.8)" stroke-width="1.5"></path><path d="M1391.04 47.85L1591.7 80.51" stroke="hsla(209.79999999999995, 78.7%, 59.9%, 0.8)" stroke-width="1.5"></path><path d="M1448.53 389.07L1448.53 389.07" stroke="hsla(209.79999999999995, 78.7%, 59.9%, 0.8)" stroke-width="1.5"></path><path d="M1448.53 389.07L1568.92 407.07" stroke="hsla(209.79999999999995, 78.7%, 59.9%, 0.8)" stroke-width="1.5"></path><path d="M1448.53 389.07L1427.05 558.37" stroke="hsla(209.79999999999995, 78.7%, 59.9%, 0.8)" stroke-width="1.5"></path><path d="M1427.05 558.37L1427.05 558.37" stroke="hsla(209.79999999999995, 78.7%, 59.9%, 0.8)" stroke-width="1.5"></path><path d="M1427.05 558.37L1284.16 553.34" stroke="hsla(209.79999999999995, 78.7%, 59.9%, 0.8)" stroke-width="1.5"></path><path d="M1427.05 558.37L1389.42 698.4" stroke="hsla(209.79999999999995, 78.7%, 59.9%, 0.8)" stroke-width="1.5"></path><path d="M1389.42 698.4L1389.42 698.4" stroke="hsla(209.79999999999995, 78.7%, 59.9%, 0.8)" stroke-width="1.5"></path><path d="M1389.42 698.4L1284.16 553.34" stroke="hsla(209.79999999999995, 78.7%, 59.9%, 0.8)" stroke-width="1.5"></path><path d="M1389.42 698.4L1577.53 668.32" stroke="hsla(209.79999999999995, 78.7%, 59.9%, 0.8)" stroke-width="1.5"></path><path d="M1389.42 698.4L1604.74 523.57" stroke="hsla(209.79999999999995, 78.7%, 59.9%, 0.8)" stroke-width="1.5"></path><path d="M1597.47 -84.6L1597.47 -84.6" stroke="hsla(209.79999999999995, 78.7%, 59.9%, 0.8)" stroke-width="1.5"></path><path d="M1597.47 -84.6L1591.7 80.51" stroke="hsla(209.79999999999995, 78.7%, 59.9%, 0.8)" stroke-width="1.5"></path><path d="M1597.47 -84.6L1391.04 47.85" stroke="hsla(209.79999999999995, 78.7%, 59.9%, 0.8)" stroke-width="1.5"></path><path d="M1597.47 -84.6L1544.49 197.43" stroke="hsla(209.79999999999995, 78.7%, 59.9%, 0.8)" stroke-width="1.5"></path><path d="M1591.7 80.51L1591.7 80.51" stroke="hsla(209.79999999999995, 78.7%, 59.9%, 0.8)" stroke-width="1.5"></path><path d="M1591.7 80.51L1544.49 197.43" stroke="hsla(209.79999999999995, 78.7%, 59.9%, 0.8)" stroke-width="1.5"></path><path d="M1544.49 197.43L1544.49 197.43" stroke="hsla(209.79999999999995, 78.7%, 59.9%, 0.8)" stroke-width="1.5"></path><path d="M1544.49 197.43L1568.92 407.07" stroke="hsla(209.79999999999995, 78.7%, 59.9%, 0.8)" stroke-width="1.5"></path><path d="M1544.49 197.43L1391.04 47.85" stroke="hsla(209.79999999999995, 78.7%, 59.9%, 0.8)" stroke-width="1.5"></path><path d="M1544.49 197.43L1448.53 389.07" stroke="hsla(209.79999999999995, 78.7%, 59.9%, 0.8)" stroke-width="1.5"></path><path d="M1544.49 197.43L1461.32 -57.18" stroke="hsla(209.79999999999995, 78.7%, 59.9%, 0.8)" stroke-width="1.5"></path><path d="M1568.92 407.07L1568.92 407.07" stroke="hsla(209.79999999999995, 78.7%, 59.9%, 0.8)" stroke-width="1.5"></path><path d="M1568.92 407.07L1604.74 523.57" stroke="hsla(209.79999999999995, 78.7%, 59.9%, 0.8)" stroke-width="1.5"></path><path d="M1568.92 407.07L1427.05 558.37" stroke="hsla(209.79999999999995, 78.7%, 59.9%, 0.8)" stroke-width="1.5"></path><path d="M1568.92 407.07L1577.53 668.32" stroke="hsla(209.79999999999995, 78.7%, 59.9%, 0.8)" stroke-width="1.5"></path><path d="M1604.74 523.57L1604.74 523.57" stroke="hsla(209.79999999999995, 78.7%, 59.9%, 0.8)" stroke-width="1.5"></path><path d="M1604.74 523.57L1577.53 668.32" stroke="hsla(209.79999999999995, 78.7%, 59.9%, 0.8)" stroke-width="1.5"></path><path d="M1604.74 523.57L1427.05 558.37" stroke="hsla(209.79999999999995, 78.7%, 59.9%, 0.8)" stroke-width="1.5"></path><path d="M1604.74 523.57L1448.53 389.07" stroke="hsla(209.79999999999995, 78.7%, 59.9%, 0.8)" stroke-width="1.5"></path><path d="M1577.53 668.32L1577.53 668.32" stroke="hsla(209.79999999999995, 78.7%, 59.9%, 0.8)" stroke-width="1.5"></path><path d="M1577.53 668.32L1427.05 558.37" stroke="hsla(209.79999999999995, 78.7%, 59.9%, 0.8)" stroke-width="1.5"></path><path d="M1577.53 668.32L1448.53 389.07" stroke="hsla(209.79999999999995, 78.7%, 59.9%, 0.8)" stroke-width="1.5"></path><circle r="25" cx="220.51" cy="504.33" fill="url(&quot;#SvgjsRadialGradient1035&quot;)"></circle><circle r="25" cx="192.85" cy="710.14" fill="url(&quot;#SvgjsRadialGradient1035&quot;)"></circle><circle r="25" cx="1130.77" cy="375.06" fill="url(&quot;#SvgjsRadialGradient1035&quot;)"></circle><circle r="25" cx="1287.18" cy="-77.48" fill="url(&quot;#SvgjsRadialGradient1035&quot;)"></circle><circle r="5" cx="-51.82" cy="539.31" fill="rgba(163, 200, 237, 0.9)"></circle><circle r="5" cx="100.5" cy="536.54" fill="rgba(163, 200, 237, 0.9)"></circle><circle r="5" cx="50.65" cy="704.08" fill="rgba(163, 200, 237, 0.9)"></circle><circle r="5" cx="398.72" cy="491.73" fill="rgba(163, 200, 237, 0.9)"></circle><circle r="5" cx="364.69" cy="644.31" fill="rgba(163, 200, 237, 0.9)"></circle><circle r="5" cx="542.28" cy="556.05" fill="rgba(163, 200, 237, 0.9)"></circle><circle r="5" cx="537.91" cy="699.96" fill="rgba(163, 200, 237, 0.9)"></circle><circle r="5" cx="652.1" cy="395.78" fill="rgba(163, 200, 237, 0.9)"></circle><circle r="5" cx="696.59" cy="536.65" fill="rgba(163, 200, 237, 0.9)"></circle><circle r="5" cx="834.09" cy="397.6" fill="rgba(163, 200, 237, 0.9)"></circle><circle r="5" cx="834.21" cy="502.51" fill="rgba(163, 200, 237, 0.9)"></circle><circle r="5" cx="834.51" cy="670.09" fill="rgba(163, 200, 237, 0.9)"></circle><circle r="5" cx="948.58" cy="406.82" fill="rgba(163, 200, 237, 0.9)"></circle><circle r="5" cx="974.14" cy="493.36" fill="rgba(163, 200, 237, 0.9)"></circle><circle r="5" cx="1006.92" cy="696.82" fill="rgba(163, 200, 237, 0.9)"></circle><circle r="5" cx="1125.84" cy="213.17" fill="rgba(163, 200, 237, 0.9)"></circle><circle r="5" cx="1091.54" cy="503.8" fill="rgba(163, 200, 237, 0.9)"></circle><circle r="5" cx="1088.73" cy="683.6" fill="rgba(163, 200, 237, 0.9)"></circle><circle r="5" cx="1246.61" cy="191.24" fill="rgba(163, 200, 237, 0.9)"></circle><circle r="5" cx="1284.16" cy="553.34" fill="rgba(163, 200, 237, 0.9)"></circle><circle r="5" cx="1261.56" cy="651.68" fill="rgba(163, 200, 237, 0.9)"></circle><circle r="5" cx="1461.32" cy="-57.18" fill="rgba(163, 200, 237, 0.9)"></circle><circle r="5" cx="1391.04" cy="47.85" fill="rgba(163, 200, 237, 0.9)"></circle><circle r="5" cx="1448.53" cy="389.07" fill="rgba(163, 200, 237, 0.9)"></circle><circle r="5" cx="1427.05" cy="558.37" fill="rgba(163, 200, 237, 0.9)"></circle><circle r="5" cx="1389.42" cy="698.4" fill="rgba(163, 200, 237, 0.9)"></circle><circle r="5" cx="1597.47" cy="-84.6" fill="rgba(163, 200, 237, 0.9)"></circle><circle r="5" cx="1591.7" cy="80.51" fill="rgba(163, 200, 237, 0.9)"></circle><circle r="5" cx="1544.49" cy="197.43" fill="rgba(163, 200, 237, 0.9)"></circle><circle r="5" cx="1568.92" cy="407.07" fill="rgba(163, 200, 237, 0.9)"></circle><circle r="5" cx="1604.74" cy="523.57" fill="rgba(163, 200, 237, 0.9)"></circle><circle r="5" cx="1577.53" cy="668.32" fill="rgba(163, 200, 237, 0.9)"></circle></g><defs><mask id="SvgjsMask1034"><rect width="1440" height="560" fill="#ffffff"></rect></mask><radialGradient id="SvgjsRadialGradient1035"><stop stop-color="#ffffff" offset="0.1"></stop><stop stop-color="rgba(25, 118, 210, 0.8)" offset="0.2"></stop><stop stop-color="rgba(25, 118, 210, 0)" offset="1"></stop></radialGradient></defs></svg>